<?xml version="1.0" encoding="UTF-8" standalone="no"?>
<svg
   xmlns:dc="http://purl.org/dc/elements/1.1/"
   xmlns:cc="http://creativecommons.org/ns#"
   xmlns:rdf="http://www.w3.org/1999/02/22-rdf-syntax-ns#"
   xmlns:svg="http://www.w3.org/2000/svg"
   xmlns="http://www.w3.org/2000/svg"
   xmlns:sodipodi="http://sodipodi.sourceforge.net/DTD/sodipodi-0.dtd"
   xmlns:inkscape="http://www.inkscape.org/namespaces/inkscape"
   width="319.66299"
   height="337.5947"
   viewBox="0 0 319.66299 337.5947"
   version="1.1"
   id="svg2"
   inkscape:version="0.91 r13725"
   sodipodi:docname="logo.svg">
  <metadata
     id="metadata43">
    <rdf:RDF>
      <cc:Work
         rdf:about="">
        <dc:format>image/svg+xml</dc:format>
        <dc:type
           rdf:resource="http://purl.org/dc/dcmitype/StillImage" />
        <dc:title>Page 1</dc:title>
      </cc:Work>
    </rdf:RDF>
  </metadata>
  <sodipodi:namedview
     pagecolor="#ffffff"
     bordercolor="#666666"
     borderopacity="1"
     objecttolerance="10"
     gridtolerance="10"
     guidetolerance="10"
     inkscape:pageopacity="0"
     inkscape:pageshadow="2"
     inkscape:window-width="1440"
     inkscape:window-height="757"
     id="namedview41"
     showgrid="false"
     fit-margin-top="0"
     fit-margin-left="0"
     fit-margin-right="0"
     fit-margin-bottom="0"
     inkscape:zoom="0.91716779"
     inkscape:cx="113.7648"
     inkscape:cy="124.5702"
     inkscape:window-x="0"
     inkscape:window-y="1"
     inkscape:window-maximized="1"
     inkscape:current-layer="svg2" />
  <!-- Generator: Sketch 40.3 (33839) - http://www.bohemiancoding.com/sketch -->
  <title
     id="title4">Page 1</title>
  <desc
     id="desc6">Created with Sketch.</desc>
  <defs
     id="defs8" />
  <path
     d="M 42.52,0 C 65.949,0 85.04,19.02 85.04,42.491 85.04,65.962 65.949,85.039 42.52,85.039 19.033,85.039 0,65.962 0,42.491 0,19.02 19.033,0 42.52,0"
     id="Fill-27"
     inkscape:connector-curvature="0"
     style="fill:#0098e0;fill-rule:evenodd;stroke:none;stroke-width:1" />
  <polygon
     id="Fill-28"
     points="8.4851,110.551 8.4851,331.653 76.5161,331.653 76.5161,110.551 "
     style="fill:#002f91;fill-rule:evenodd;stroke:none;stroke-width:1" />
  <path
     d="m 208.36,192.04 -43.705,0 c 4.179,-17.235 18.202,-32.849 43.705,-32.849 25.503,0 39.526,15.614 43.705,32.849 l -43.705,0 z m 111.303,29.763 -0.001,-1.208 c -0.233,-64.087 -43.085,-115.95 -113.068,-115.95 -69.984,0 -112.8352,51.863 -113.0682,115.95 l -0.002,1.208 c 0,70.3837 54.4912,115.7917 122.6062,115.7917 35.419,0 71.292,-15.892 93.089,-43.593 l -46.353,-33.992 c -12.229,14.337 -27.664,25.82 -49.915,25.82 -26.337,0 -45.863,-16.802 -51.312,-42.6847 l 156.229,0 c 1.158,-6.828 1.795,-13.938 1.795,-21.342 l 0,0 z"
     id="Fill-29"
     inkscape:connector-curvature="0"
     style="fill:#002f91;fill-rule:evenodd;stroke:none;stroke-width:1" />
</svg>
